<svg width="20" height="32" viewBox="0 0 20 32" fill="none" xmlns="http://www.w3.org/2000/svg">
<g clip-path="url(#clip0_2_39)">
<path d="M6.75451 1.11072L1.41591 18.3977L9.86774 18.6246L6.75451 31.1366L18.7664 14.9845L10.3145 12.9389L15.2092 1.79158L6.75451 1.11072Z" fill="#FFC700"/>
<path d="M6.6628 31.9709C6.57194 31.9704 6.48232 31.9493 6.40047 31.909C6.2748 31.8468 6.174 31.7421 6.11516 31.6127C6.05632 31.4832 6.04307 31.3369 6.07762 31.1986L9.00636 19.4382L1.30976 19.2319C1.216 19.2285 1.12423 19.2034 1.04134 19.1585C0.958452 19.1135 0.886627 19.0499 0.831268 18.9725C0.777026 18.8944 0.74123 18.8045 0.726724 18.7099C0.712218 18.6153 0.719387 18.5185 0.747661 18.4272L6.08627 1.13733C6.12933 1.00497 6.21406 0.890948 6.32724 0.813085C6.44042 0.735221 6.57565 0.697912 6.71178 0.706998L15.1665 1.39081C15.2627 1.39747 15.3559 1.42774 15.4382 1.47905C15.5205 1.53035 15.5894 1.6012 15.6393 1.68556C15.6883 1.77102 15.7167 1.86717 15.7222 1.96608C15.7277 2.06499 15.7102 2.16382 15.671 2.25442L11.0761 12.718L18.8159 14.5926C18.9144 14.6164 19.0056 14.665 19.0811 14.734C19.1566 14.8029 19.2141 14.8901 19.2483 14.9875C19.2837 15.0854 19.2941 15.191 19.2785 15.2941C19.2628 15.3973 19.2217 15.4947 19.1589 15.577L7.14706 31.7292C7.08948 31.8043 7.01598 31.8651 6.93209 31.9069C6.8482 31.9488 6.75614 31.9707 6.6628 31.9709V31.9709ZM2.14284 18.0146L9.79331 18.2209C9.88399 18.2239 9.97289 18.2473 10.0536 18.2896C10.1344 18.3319 10.205 18.392 10.2603 18.4655C10.3155 18.5397 10.3535 18.6257 10.3715 18.7171C10.3895 18.8085 10.3869 18.9029 10.3641 18.9931L7.98879 28.5518L17.634 15.5829L10.0873 13.7555C10.0005 13.7348 9.9192 13.6948 9.84933 13.6381C9.77947 13.5814 9.72275 13.5096 9.68331 13.4279C9.64388 13.3461 9.6227 13.2564 9.62128 13.1652C9.61986 13.0741 9.63824 12.9837 9.67512 12.9007L14.2181 2.55506L7.09807 1.98031L2.14284 18.0146Z" fill="#FFC700"/>
</g>
<defs>
<clipPath id="clip0_2_39">
<rect width="18.5612" height="31.2609" fill="white" transform="translate(0.71875 0.707031)"/>
</clipPath>
</defs>
</svg>
